<?xml version="1.0" standalone="no"?>
<!DOCTYPE svg PUBLIC "-//W3C//DTD SVG 20010904//EN"
 "http://www.w3.org/TR/2001/REC-SVG-20010904/DTD/svg10.dtd">
<svg version="1.0" xmlns="http://www.w3.org/2000/svg"
 width="373.000000pt" height="373.000000pt" viewBox="0 0 373.000000 373.000000"
 preserveAspectRatio="xMidYMid meet">
<metadata>
Created by potrace 1.14, written by Peter Selinger 2001-2017
</metadata>
<g transform="translate(0.000000,373.000000) scale(0.100000,-0.100000)"
fill="#000000" stroke="none">
<path d="M1669 3720 c-649 -83 -1186 -458 -1467 -1025 -177 -358 -237 -775
-167 -1150 21 -113 32 -156 65 -256 186 -567 619 -1004 1182 -1192 197 -66
361 -92 588 -92 163 0 247 8 381 36 475 98 910 393 1174 797 158 243 248 482
291 772 24 170 15 471 -20 630 -102 457 -343 839 -701 1110 -115 86 -243 162
-369 218 -106 47 -277 105 -284 97 -3 -3 -10 -1 -16 4 -9 7 -53 17 -211 46
-54 10 -378 14 -446 5z m436 -174 c17 -3 46 -9 65 -12 74 -13 86 -15 125 -26
22 -7 42 -12 45 -13 108 -30 227 -77 329 -132 80 -42 243 -150 291 -193 208
-186 332 -345 439 -562 75 -152 118 -294 156 -508 15 -81 14 -366 -1 -465 -40
-270 -123 -487 -271 -711 -58 -89 -81 -113 -91 -98 -4 5 -16 11 -27 12 -11 2
-23 9 -27 15 -4 7 -8 8 -8 3 0 -5 -6 -3 -13 3 -8 6 -17 8 -20 4 -4 -3 -7 -1
-7 5 0 7 -12 12 -26 12 -14 0 -32 6 -40 14 -7 8 -23 12 -34 9 -14 -4 -20 0
-20 10 0 10 -6 13 -20 10 -12 -3 -20 0 -20 7 0 8 -9 11 -25 8 -14 -3 -23 -1
-22 6 1 6 -10 11 -25 10 -16 0 -28 4 -28 9 0 4 -4 5 -10 2 -5 -3 -10 -1 -10 5
0 6 -4 8 -10 5 -5 -3 -10 0 -10 7 0 9 -3 9 -10 -2 -8 -13 -10 -12 -10 4 0 11
-5 16 -13 13 -7 -3 -21 1 -32 9 -10 8 -26 14 -36 14 -9 0 -19 7 -23 15 -3 8
-10 15 -16 15 -6 0 -8 -6 -5 -12 4 -7 0 -5 -9 6 -8 10 -20 15 -27 10 -7 -4
-10 -3 -5 4 3 6 -3 13 -14 17 -11 3 -20 11 -20 16 0 5 -9 9 -20 9 -11 0 -20 4
-20 9 0 6 -9 8 -20 6 -11 -2 -22 0 -25 6 -4 5 -13 6 -24 0 -12 -7 -26 -4 -49
11 -18 11 -32 24 -32 30 0 5 -4 6 -10 3 -6 -3 -7 1 -4 9 3 9 1 16 -4 16 -6 0
-9 9 -7 20 2 11 1 22 -3 24 -4 3 -7 17 -6 33 0 15 -4 31 -10 35 -8 5 -7 8 2 8
10 0 10 5 2 20 -8 15 -8 20 2 20 8 0 9 3 3 8 -14 10 -11 88 3 85 6 -2 9 4 6
12 -3 8 3 27 13 42 22 31 37 64 35 76 -1 4 2 7 8 7 6 0 10 3 9 8 -2 16 14 51
22 47 4 -3 6 4 4 15 -2 11 0 20 5 20 5 0 7 7 4 15 -4 8 1 17 10 21 9 3 13 10
10 15 -3 5 0 9 6 9 6 0 8 4 5 10 -3 5 3 10 14 10 12 0 21 5 21 10 0 6 5 9 12
8 7 -2 12 2 13 7 0 6 4 16 8 23 5 6 5 17 2 22 -3 6 -2 10 3 10 5 0 9 12 10 28
0 45 2 53 10 48 4 -2 7 8 6 22 -1 15 3 32 8 39 5 7 7 17 3 23 -3 5 -2 10 4 10
5 0 8 14 6 32 -3 17 1 38 8 47 9 11 9 13 0 8 -6 -4 -14 -3 -18 3 -3 5 0 10 7
10 8 0 6 5 -5 11 -9 6 -16 13 -13 17 2 4 -7 18 -21 32 -20 21 -23 22 -17 5 7
-17 5 -18 -8 -8 -8 7 -18 10 -21 6 -4 -3 -7 -1 -7 5 0 7 -8 12 -17 12 -15 0
-16 2 -3 10 9 6 11 10 3 10 -7 0 -10 6 -7 14 3 8 0 17 -6 21 -8 5 -8 10 0 20
8 10 8 15 0 20 -8 5 -7 11 2 23 10 12 10 14 0 8 -14 -8 -12 19 2 43 7 11 6 12
-5 6 -12 -8 -12 -6 0 8 7 9 10 17 5 17 -5 0 -1 5 9 11 9 6 15 14 12 20 -4 5 1
9 10 9 11 0 15 5 12 14 -3 8 1 17 10 20 13 5 13 9 2 23 -8 9 -9 14 -3 10 7 -4
14 2 17 14 5 17 3 18 -10 7 -15 -12 -15 -11 -4 10 7 13 10 28 8 35 -2 7 0 20
5 31 7 13 7 16 -1 12 -6 -4 -11 -2 -11 3 0 6 6 11 13 12 6 0 3 4 -8 9 -11 5
-15 9 -9 9 7 1 15 8 18 17 6 15 4 15 -10 3 -16 -13 -16 -12 -5 9 6 12 8 22 3
22 -4 0 -8 10 -9 22 -1 11 -8 25 -15 29 -10 7 -10 9 0 9 6 0 12 4 12 10 0 5
-6 9 -12 7 -7 -1 -12 4 -11 11 2 6 -2 12 -7 12 -6 0 -10 6 -10 14 0 8 -7 17
-16 20 -10 4 -14 12 -10 23 4 10 4 15 1 11 -7 -7 -55 38 -55 52 0 6 -4 10 -10
10 -5 0 -10 8 -10 17 0 9 -3 13 -7 10 -3 -4 -16 5 -29 18 -13 14 -28 25 -34
25 -5 0 -10 5 -10 10 0 6 -8 10 -19 10 -10 0 -24 7 -31 15 -7 8 -16 12 -21 9
-5 -3 -9 0 -9 5 0 6 -7 11 -16 11 -8 0 -12 5 -9 10 4 6 3 10 -2 9 -26 -4 -44
2 -37 14 5 8 2 8 -9 -2 -9 -7 -17 -9 -17 -5 0 5 -9 15 -21 22 -17 11 -20 11
-13 0 4 -7 -4 -3 -18 10 -19 17 -28 20 -33 11 -6 -8 -4 -10 5 -4 9 5 11 4 6
-3 -5 -9 -14 -7 -31 4 -13 9 -29 13 -35 9 -5 -3 -10 2 -10 12 0 15 -2 16 -10
3 -6 -10 -10 -11 -10 -2 0 6 -3 11 -7 11 -5 -1 -10 0 -13 1 -17 6 -60 4 -60
-3 0 -5 -6 -5 -13 1 -7 6 -18 8 -24 4 -7 -4 -28 -7 -47 -6 -20 1 -40 -4 -47
-12 -9 -12 -15 -12 -27 -2 -13 10 -14 10 -8 1 7 -13 -3 -16 -46 -16 -10 0 -18
-4 -18 -9 0 -5 -4 -7 -10 -3 -5 3 -17 1 -27 -4 -32 -17 -85 -31 -96 -24 -6 3
-7 1 -3 -5 4 -7 1 -12 -8 -12 -9 0 -16 -4 -16 -10 0 -5 -6 -7 -14 -4 -7 3 -16
-2 -20 -11 -3 -9 -11 -13 -16 -10 -6 4 -9 1 -8 -7 2 -7 -4 -12 -14 -10 -9 1
-24 -8 -35 -21 -18 -23 -24 -27 -43 -27 -5 0 -17 -12 -25 -27 -9 -16 -14 -20
-11 -11 3 12 1 15 -9 11 -8 -3 -12 -9 -9 -14 3 -5 -2 -9 -11 -9 -9 0 -13 -4
-10 -10 3 -5 -1 -10 -9 -10 -10 0 -13 -6 -9 -17 4 -11 3 -14 -6 -9 -14 9 -61
-30 -61 -51 0 -8 -7 -16 -16 -20 -8 -3 -13 -12 -9 -20 4 -11 1 -13 -11 -9 -14
5 -15 4 -4 -9 7 -8 8 -15 3 -15 -5 0 -8 -17 -6 -37 1 -20 -3 -43 -10 -52 -10
-12 -9 -13 2 -6 11 6 13 3 9 -13 -5 -16 -1 -22 10 -23 11 0 12 -2 5 -6 -7 -2
-13 -9 -13 -15 0 -12 26 -39 33 -32 2 3 7 -2 11 -11 3 -9 2 -13 -4 -10 -19 12
-10 -2 17 -26 15 -13 21 -16 14 -6 -7 9 -9 17 -3 17 20 0 36 -65 38 -154 1
-50 3 -93 4 -96 1 -3 2 -21 2 -40 0 -19 5 -41 10 -47 7 -9 7 -13 -1 -13 -7 0
-9 -5 -5 -12 16 -26 12 -50 -8 -45 -10 3 -16 2 -13 -3 2 -4 -9 -10 -25 -13
-59 -12 -68 -91 -23 -207 16 -41 35 -93 42 -115 10 -30 24 -48 62 -73 31 -20
49 -39 49 -52 0 -11 4 -20 9 -20 7 0 22 -48 20 -66 0 -4 3 -10 8 -13 15 -11
43 -60 43 -76 0 -8 4 -15 8 -15 9 0 36 -59 35 -77 -1 -7 2 -13 6 -13 6 0 6
-194 0 -220 -4 -15 -59 -70 -68 -67 -3 0 -19 -6 -36 -15 -16 -8 -40 -14 -52
-13 -12 1 -25 -5 -28 -12 -2 -8 -9 -11 -15 -8 -5 3 -10 1 -10 -6 0 -7 -3 -9
-7 -6 -3 4 -18 -3 -31 -15 -14 -13 -22 -16 -18 -8 4 8 0 6 -8 -4 -9 -11 -16
-16 -16 -12 0 5 -6 3 -13 -3 -8 -6 -17 -8 -20 -4 -4 3 -7 0 -7 -7 0 -7 -3 -10
-7 -7 -3 4 -13 1 -21 -6 -13 -10 -15 -9 -8 3 6 13 6 13 -6 0 -7 -9 -26 -15
-42 -15 -15 1 -31 -5 -33 -13 -3 -7 -12 -11 -19 -8 -8 3 -13 2 -13 -2 3 -19
-2 -25 -11 -12 -8 13 -10 12 -10 -3 0 -10 -4 -16 -9 -13 -5 3 -14 -1 -21 -9
-7 -8 -16 -13 -20 -10 -4 2 -18 -4 -30 -15 -12 -11 -26 -17 -30 -15 -4 3 -13
-2 -20 -10 -7 -8 -16 -12 -21 -9 -5 3 -9 0 -9 -7 0 -7 -3 -9 -7 -6 -3 4 -12
-1 -20 -11 -9 -10 -11 -11 -7 -2 7 13 5 13 -9 1 -9 -7 -17 -10 -17 -7 0 4 -7
0 -16 -8 -8 -9 -21 -16 -29 -16 -17 0 -66 -26 -60 -32 3 -2 -2 -5 -10 -5 -21
0 -98 91 -166 194 -51 77 -91 142 -94 153 -5 17 -41 86 -47 88 -5 2 -8 12 -8
22 0 10 -4 22 -10 25 -5 3 -10 12 -10 19 0 8 -8 31 -17 52 -9 22 -17 44 -19
49 -1 6 -10 37 -20 70 -19 63 -23 81 -28 105 -1 8 -5 31 -9 50 -20 102 -30
203 -30 315 0 80 8 201 17 241 2 12 7 37 10 55 3 19 8 45 11 59 3 14 7 34 9
45 3 11 11 41 19 67 8 26 12 49 9 52 -3 4 -1 6 5 6 5 0 10 7 10 15 0 31 100
248 162 350 166 273 437 513 734 650 148 68 350 126 497 141 36 3 67 8 70 11
6 5 328 -4 365 -11z"/>
</g>
</svg>
